<svg width="222" height="143" viewBox="0 0 222 143" fill="none" xmlns="http://www.w3.org/2000/svg">
    <g clip-path="url(#clip0_7_11)">
        <path d="M206.867 139.7C206.58 140.615 206.224 141.494 205.802 142.325C205.685 142.555 205.562 142.781 205.431 143H194.552C194.475 142.929 194.402 142.855 194.325 142.784C193.943 142.747 193.563 142.7 193.192 142.649C193.23 142.609 193.271 142.568 193.309 142.528C193.113 142.548 192.916 142.568 192.72 142.578C192.875 142.602 193.034 142.626 193.192 142.649C193.074 142.767 192.954 142.885 192.832 143H192.356L192.676 142.578C192.422 142.588 192.171 142.595 191.917 142.588L192.711 142.325L193.569 142.042C193.602 142.075 193.637 142.109 193.67 142.143C195.133 140.554 196.323 138.617 197.169 136.448C198.014 134.28 198.498 131.923 198.592 129.518C198.686 127.114 198.387 124.71 197.714 122.451C197.041 120.192 196.008 118.123 194.675 116.367C196.82 118.147 198.658 120.435 200.081 123.101C201.504 125.766 202.483 128.755 202.962 131.892C203.208 133.426 203.245 135 203.071 136.548C203.167 136.417 203.262 136.285 203.355 136.15C204.738 134.08 205.735 131.659 206.275 129.058C206.815 126.458 206.885 123.742 206.479 121.105C207.538 124.018 208.118 127.162 208.184 130.354C208.251 133.547 207.803 136.723 206.867 139.7Z" fill="#70895B"/>
        <path d="M152.599 26.8468C156.834 26.8468 160.267 22.6045 160.267 17.3715C160.267 12.1384 156.834 7.89612 152.599 7.89612C148.364 7.89612 144.931 12.1384 144.931 17.3715C144.931 22.6045 148.364 26.8468 152.599 26.8468Z" fill="#2F2E41"/>
        <path d="M177.465 139.05L174.118 139.05L172.525 123.094L177.466 123.095L177.465 139.05Z" fill="#FFB8B8"/>
        <path d="M171.726 137.868H178.183V142.891H167.661C167.661 142.232 167.766 141.578 167.971 140.969C168.175 140.36 168.474 139.806 168.852 139.339C169.229 138.873 169.677 138.503 170.171 138.251C170.664 137.998 171.192 137.868 171.726 137.868Z" fill="#2F2E41"/>
        <path d="M143.316 138.509L140.083 137.432L141.907 121.514L146.677 123.103L143.316 138.509Z" fill="#FFB8B8"/>
        <path d="M138.024 135.522L144.257 137.598L143.199 142.448L133.04 139.064C133.321 137.778 134.004 136.682 134.938 136.017C135.873 135.353 136.983 135.175 138.024 135.522Z" fill="#2F2E41"/>
        <path d="M149.659 65.2219L139.691 135.024L144.803 136.287L160.906 87.0152L172.919 135.971L179.054 135.024C179.054 135.024 176.242 64.906 167.296 58.905L149.659 65.2219Z" fill="#2F2E41"/>
        <path d="M133.85 90.1921C134.21 89.9711 134.526 89.6554 134.776 89.2673C135.025 88.8792 135.204 88.428 135.297 87.9457C135.391 87.4633 135.398 86.9615 135.317 86.4755C135.237 85.9894 135.071 85.5311 134.832 85.1327L140.33 75.171L135.26 75.0738L130.816 84.5485C130.302 85.0894 129.965 85.8449 129.871 86.6719C129.776 87.4988 129.931 88.3398 130.305 89.0355C130.679 89.7311 131.246 90.2331 131.9 90.4462C132.553 90.6594 133.247 90.569 133.85 90.1921Z" fill="#FFB8B8"/>
        <path d="M170.146 77.8742C170.505 77.6532 170.821 77.3375 171.071 76.9494C171.321 76.5612 171.499 76.1101 171.593 75.6278C171.686 75.1454 171.693 74.6435 171.613 74.1575C171.533 73.6715 171.367 73.2132 171.128 72.8148L176.625 62.8531L171.555 62.7558L167.112 72.2306C166.597 72.7715 166.261 73.527 166.166 74.3539C166.072 75.1809 166.226 76.0219 166.6 76.7175C166.974 77.4132 167.542 77.9151 168.195 78.1283C168.849 78.3415 169.543 78.2511 170.146 77.8742Z" fill="#FFB8B8"/>
        <path d="M152.794 28.7228C156.498 28.7228 159.501 25.0124 159.501 20.4354C159.501 15.8584 156.498 12.148 152.794 12.148C149.09 12.148 146.087 15.8584 146.087 20.4354C146.087 25.0124 149.09 28.7228 152.794 28.7228Z" fill="#FFB8B8"/>
        <path d="M167.296 33.3216C167.04 32.0582 162.695 32.3741 162.695 32.3741C162.695 32.3741 157.802 30.9841 157.849 31.1579C153.725 30.7657 148.696 32.6785 147.963 32.9686C146.464 33.4795 143.601 35.0424 141.536 36.192C141.248 36.3521 141.024 36.6459 140.911 37.0096C140.798 37.3732 140.805 37.7773 140.932 38.134L147.231 55.9045L148.126 67.4328L168.83 59.5367C163.718 57.0099 167.552 34.585 167.296 33.3216Z" fill="#6C63FF"/>
        <path d="M165.507 33.6374L167.206 33.11L176.498 55.7465L177.009 68.6964L171.13 63.0112V57.9576L164.996 48.1664L165.507 33.6374Z" fill="#6C63FF"/>
        <path d="M143.142 35.3746L141.174 36.4552C141.072 36.5114 140.982 36.598 140.913 36.7072C140.844 36.8164 140.798 36.9448 140.778 37.0813L136.879 64.5902L133.045 78.4874L138.157 81.6458L144.036 64.2744L146.081 51.6406L143.142 35.3746Z" fill="#6C63FF"/>
        <path d="M145.761 16.5286C147.122 15.9763 148.558 16.8422 149.888 17.5013C151.198 18.1509 152.598 18.619 154.008 18.5167C155.418 18.4144 156.843 17.6788 157.695 16.2876C158.547 14.8964 158.697 12.8114 157.854 11.4122C157.299 10.4911 156.412 9.96555 155.525 9.62334C153.629 8.89215 151.507 8.86689 149.705 9.89845C147.903 10.93 146.49 13.1092 146.342 15.5565" fill="#2F2E41"/>
        <path d="M152.395 9.92738C151.937 6.10236 153.633 2.13096 155.947 0.706299C158.261 -0.718359 160.976 0.122059 163.061 2.24355C165.146 4.36505 166.666 7.62515 167.797 11.0907C168.928 14.5562 169.711 18.268 170.633 21.8822C171.451 25.0922 172.412 28.304 173.967 30.759C175.521 33.2139 177.782 34.8114 179.948 34.1369C178.169 37.0936 174.895 36.5817 172.864 34.0527C170.833 31.5236 169.777 27.5708 168.946 23.723C168.114 19.8752 167.391 15.8493 165.783 12.6607C162.923 6.98817 157.31 5.28396 153.301 8.87098" fill="#2F2E41"/>
        <path d="M222 142.325H0V143H222V142.325Z" fill="#3F3D56"/>
        <path d="M116.472 77.5769H19.583C18.8072 77.5758 18.0634 77.1945 17.5148 76.5167C16.9662 75.8388 16.6576 74.9197 16.6568 73.961V45.436C16.6576 44.4774 16.9662 43.5583 17.5148 42.8804C18.0634 42.2025 18.8072 41.8212 19.583 41.8202H116.472C117.248 41.8212 117.992 42.2025 118.54 42.8804C119.089 43.5583 119.397 44.4774 119.398 45.436V73.961C119.397 74.9197 119.089 75.8388 118.54 76.5167C117.992 77.1945 117.248 77.5758 116.472 77.5769ZM19.583 42.6237C18.9796 42.6246 18.4011 42.9212 17.9745 43.4484C17.5478 43.9756 17.3078 44.6904 17.3071 45.436V73.961C17.3078 74.7066 17.5478 75.4214 17.9745 75.9486C18.4011 76.4759 18.9796 76.7724 19.583 76.7733H116.472C117.076 76.7724 117.654 76.4759 118.081 75.9486C118.507 75.4214 118.747 74.7066 118.748 73.961V45.436C118.747 44.6904 118.507 43.9756 118.081 43.4484C117.654 42.9212 117.076 42.6246 116.472 42.6237H19.583Z" fill="#3F3D56"/>
        <path d="M111.758 71.5505H24.2974C24.2547 71.5506 24.2123 71.5403 24.1727 71.5202C24.1332 71.5001 24.0972 71.4705 24.0669 71.4332C24.0366 71.3959 24.0126 71.3515 23.9962 71.3027C23.9798 71.2539 23.9714 71.2016 23.9714 71.1487C23.9714 71.0958 23.9798 71.0435 23.9962 70.9947C24.0126 70.9459 24.0366 70.9015 24.0669 70.8642C24.0972 70.8269 24.1332 70.7973 24.1727 70.7772C24.2123 70.7571 24.2547 70.7468 24.2974 70.7469H111.758C111.801 70.7468 111.843 70.7571 111.883 70.7772C111.922 70.7973 111.958 70.8269 111.988 70.8642C112.019 70.9015 112.043 70.9459 112.059 70.9947C112.075 71.0435 112.084 71.0958 112.084 71.1487C112.084 71.2016 112.075 71.2539 112.059 71.3027C112.043 71.3515 112.019 71.3959 111.988 71.4332C111.958 71.4705 111.922 71.5001 111.883 71.5202C111.843 71.5403 111.801 71.5506 111.758 71.5505Z" fill="#E6E6E6"/>
        <path d="M33.5637 58.2924H26.4108C26.3247 58.2927 26.2423 58.3351 26.1815 58.4105C26.1207 58.4858 26.0866 58.5878 26.0866 58.6941C26.0866 58.8005 26.1207 58.9025 26.1815 58.9778C26.2423 59.0531 26.3247 59.0956 26.4108 59.0959H29.6621V66.2001C29.6564 66.715 29.8098 67.2132 30.091 67.5932C30.3722 67.9733 30.7602 68.2065 31.1757 68.2454C31.196 68.2465 31.217 68.2469 31.2383 68.2469C31.4938 68.2411 31.7444 68.1583 31.9683 68.0059C32.1922 67.8534 32.3827 67.6359 32.5232 67.372C32.5748 67.2868 32.5969 67.1797 32.5846 67.0744C32.5724 66.9691 32.5268 66.874 32.4579 66.8102C32.389 66.7464 32.3024 66.7189 32.2171 66.7339C32.1318 66.7489 32.0549 66.8051 32.0031 66.8902C31.9203 67.0604 31.8029 67.201 31.6625 67.2979C31.5222 67.3948 31.3638 67.4447 31.203 67.4426C30.9546 67.4141 30.7242 67.2698 30.5588 67.039C30.3934 66.8082 30.3053 66.5083 30.3124 66.2001V59.0959H33.5637C33.6065 59.096 33.6489 59.0858 33.6884 59.0656C33.728 59.0455 33.7639 59.0159 33.7942 58.9786C33.8245 58.9413 33.8485 58.897 33.8649 58.8481C33.8813 58.7993 33.8898 58.747 33.8898 58.6941C33.8898 58.6413 33.8813 58.5889 33.8649 58.5401C33.8485 58.4913 33.8245 58.4469 33.7942 58.4096C33.7639 58.3723 33.728 58.3427 33.6884 58.3226C33.6489 58.3025 33.6065 58.2922 33.5637 58.2924Z" fill="#6C63FF"/>
        <path d="M57.9485 93.2455C59.385 93.2455 60.5496 91.8065 60.5496 90.0314C60.5496 88.2564 59.385 86.8174 57.9485 86.8174C56.512 86.8174 55.3475 88.2564 55.3475 90.0314C55.3475 91.8065 56.512 93.2455 57.9485 93.2455Z" fill="#E6E6E6"/>
        <path d="M68.0276 93.2455C69.4641 93.2455 70.6286 91.8065 70.6286 90.0314C70.6286 88.2564 69.4641 86.8174 68.0276 86.8174C66.591 86.8174 65.4265 88.2564 65.4265 90.0314C65.4265 91.8065 66.591 93.2455 68.0276 93.2455Z" fill="#6C63FF"/>
        <path d="M78.1067 93.2455C79.5432 93.2455 80.7077 91.8065 80.7077 90.0314C80.7077 88.2564 79.5432 86.8174 78.1067 86.8174C76.6701 86.8174 75.5056 88.2564 75.5056 90.0314C75.5056 91.8065 76.6701 93.2455 78.1067 93.2455Z" fill="#E6E6E6"/>
        <path d="M35.0818 67.9472C35.188 67.9427 35.2886 67.8874 35.3624 67.7929C35.4362 67.6985 35.4775 67.5724 35.4775 67.4411C35.4775 67.3098 35.4362 67.1837 35.3624 67.0893C35.2886 66.9948 35.188 66.9395 35.0818 66.935C34.9756 66.9395 34.875 66.9948 34.8012 67.0893C34.7274 67.1837 34.6862 67.3098 34.6862 67.4411C34.6862 67.5724 34.7274 67.6985 34.8012 67.7929C34.875 67.8874 34.9756 67.9427 35.0818 67.9472Z" fill="#3F3D56"/>
        <path d="M37.6828 67.9472C37.789 67.9427 37.8896 67.8874 37.9634 67.7929C38.0372 67.6985 38.0785 67.5724 38.0785 67.4411C38.0785 67.3098 38.0372 67.1837 37.9634 67.0893C37.8896 66.9948 37.789 66.9395 37.6828 66.935C37.5766 66.9395 37.476 66.9948 37.4022 67.0893C37.3284 67.1837 37.2872 67.3098 37.2872 67.4411C37.2872 67.5724 37.3284 67.6985 37.4022 67.7929C37.476 67.8874 37.5766 67.9427 37.6828 67.9472Z" fill="#3F3D56"/>
        <path d="M40.2839 67.9472C40.3901 67.9427 40.4907 67.8874 40.5645 67.7929C40.6383 67.6985 40.6795 67.5724 40.6795 67.4411C40.6795 67.3098 40.6383 67.1837 40.5645 67.0893C40.4907 66.9948 40.3901 66.9395 40.2839 66.935C40.1777 66.9395 40.0771 66.9948 40.0033 67.0893C39.9295 67.1837 39.8882 67.3098 39.8882 67.4411C39.8882 67.5724 39.9295 67.6985 40.0033 67.7929C40.0771 67.8874 40.1777 67.9427 40.2839 67.9472Z" fill="#3F3D56"/>
    </g>
    <defs>
        <clipPath id="clip0_7_11">
            <rect width="222" height="143" fill="green"/>
        </clipPath>
    </defs>
</svg>
