<svg width="351" height="233" viewBox="0 0 351 233" fill="none" xmlns="http://www.w3.org/2000/svg">
    <g clip-path="url(#clip0_8_175)">
        <path d="M228.844 101.721C228.44 103.865 227.956 105.988 227.391 108.089C227.329 108.332 227.261 108.573 227.192 108.817H219.332C218.662 108.817 218.02 109.086 217.547 109.564C217.074 110.042 216.807 110.689 216.807 111.365V133.981C216.568 134.428 216.327 134.873 216.085 135.317C214.837 137.61 213.538 139.879 212.211 142.117C190.564 178.508 160.372 208.96 124.302 230.785L126.438 225.921C125.655 225.866 124.868 225.812 124.086 225.757C107.041 224.581 89.9379 223.278 73.2933 219.412C55.8804 215.367 38.8463 208.351 25.1995 196.72C11.549 185.084 1.54213 168.468 0.153244 150.491C-0.309875 144.313 0.309278 138.1 1.98231 132.139C5.18194 120.663 12.1732 110.339 22.2595 104.23C38.1032 94.6365 58.77 96.5915 75.4722 104.572C92.1708 112.548 105.764 125.753 119.035 138.728C105.636 115.538 86.9789 95.8851 64.5959 81.3809C57.1791 76.5899 49.3078 72.3231 43.002 66.1158C36.6998 59.9122 32.0499 51.2147 33.1647 42.4008C34.4308 32.4036 42.5439 24.8166 50.6713 18.9661C53.918 16.6288 57.2692 14.4117 60.7252 12.3729C70.4759 6.60615 81.024 2.25561 92.1636 0.64281C107.253 -1.54521 123.552 1.77505 135.121 11.794C148.154 23.0836 153.5 41.2904 152.992 58.7071C161.022 46.9261 173.406 37.9082 187.392 37.526C201.912 37.1328 215.714 46.3909 222.986 59.0821C230.255 71.7697 231.561 87.3225 228.844 101.721Z" fill="#E6E6E6"/>
        <path d="M136.979 150.649C145.483 149.894 153.339 149.01 161.58 146.657C169.568 144.376 177.254 140.557 182.941 134.322C189.057 127.615 192.359 118.905 194.688 110.235C195.987 105.401 197.054 100.499 198.061 95.5961C199.154 90.276 200.124 84.9324 200.973 79.5652C202.663 68.8818 203.87 58.1354 204.593 47.3261C204.68 46.014 204.76 44.7015 204.833 43.3885C204.878 42.5785 203.63 42.5811 203.585 43.3885C202.991 54.0433 201.922 64.6567 200.38 75.2285C198.857 85.6152 196.909 95.9569 194.437 106.157C192.343 114.799 189.632 123.575 184.262 130.769C179.227 137.515 171.953 141.923 164.1 144.559C156.108 147.241 147.682 148.312 139.332 149.108C138.307 149.205 138.004 149.299 136.979 149.39C136.185 149.46 136.177 150.721 136.979 150.649Z" fill="white"/>
        <path d="M2.70249 133.068C13.4322 133.669 24.0528 135.557 34.3397 138.694C44.631 141.825 54.5205 146.169 63.8036 151.637C72.7734 156.925 81.1004 163.253 88.6153 170.491C95.9086 177.519 102.409 185.341 107.997 193.813C113.61 202.306 118.263 211.408 121.866 220.948C122.305 222.115 122.729 223.289 123.136 224.468C123.399 225.229 124.605 224.902 124.339 224.134C120.968 214.392 116.524 205.064 111.09 196.324C105.657 187.583 99.2811 179.477 92.0787 172.153C84.761 164.716 76.6168 158.157 67.808 152.606C49.3125 140.979 28.3479 133.945 6.6358 132.082C5.32609 131.971 4.01499 131.88 2.7025 131.808C1.89986 131.764 1.90231 133.024 2.70249 133.068Z" fill="white"/>
        <path d="M61.0621 13.8495C67.9225 16.0514 74.4253 19.2584 80.3622 23.3676C86.4287 27.5952 91.9615 32.554 96.8379 38.134C101.977 44.0041 106.545 50.3583 110.481 57.1094C114.656 64.2375 118.282 71.6784 121.329 79.3665C124.466 87.2595 127.104 95.3452 129.228 103.575C131.387 111.902 133.074 120.347 134.279 128.868C135.479 137.299 136.205 145.791 136.454 154.305C136.705 162.446 136.466 170.594 135.74 178.706C135.075 186.274 133.862 193.782 132.11 201.171C130.553 207.844 128.36 214.35 125.56 220.596C124.912 222.014 124.224 223.412 123.496 224.79C123.119 225.505 124.196 226.143 124.574 225.426C127.668 219.46 130.138 213.185 131.945 206.703C133.973 199.486 135.442 192.123 136.341 184.677C137.337 176.599 137.822 168.465 137.793 160.325C137.775 151.773 137.271 143.229 136.283 134.736C135.294 126.136 133.826 117.6 131.885 109.167C129.949 100.72 127.494 92.4038 124.533 84.2655C121.679 76.3871 118.262 68.7283 114.309 61.3495C110.544 54.3082 106.156 47.6247 101.199 41.3803C96.4918 35.4347 91.1174 30.0597 85.1837 25.3629C79.4621 20.8475 73.1394 17.1669 66.4017 14.4292C64.7552 13.7678 63.0859 13.1697 61.3939 12.6348C60.6259 12.391 60.2973 13.6067 61.0621 13.8495Z" fill="white"/>
        <path d="M135.099 232.962C184.408 232.962 224.382 231.332 224.382 229.321C224.382 227.311 184.408 225.681 135.099 225.681C85.7889 225.681 45.8155 227.311 45.8155 229.321C45.8155 231.332 85.7889 232.962 135.099 232.962Z" fill="#E6E6E6"/>
        <path d="M213.981 115.293C213.937 115.49 213.908 115.689 213.895 115.89L198.398 124.912L194.632 122.724L190.616 128.029L198.674 133.825L216.353 119.75C217.074 120.019 217.86 120.06 218.605 119.868C219.349 119.676 220.019 119.26 220.523 118.675C221.028 118.089 221.344 117.363 221.43 116.592C221.516 115.821 221.367 115.041 221.003 114.358C220.639 113.674 220.078 113.119 219.393 112.765C218.709 112.411 217.934 112.276 217.172 112.378C216.41 112.479 215.696 112.813 215.126 113.333C214.556 113.854 214.157 114.538 213.981 115.293Z" fill="#FFB8B8"/>
        <path d="M178.689 120.829L190.891 129.605L196.348 122.7L184.487 113.095C183.977 112.682 183.388 112.378 182.757 112.202C182.127 112.027 181.467 111.983 180.819 112.073C180.171 112.164 179.548 112.387 178.989 112.729C178.429 113.072 177.944 113.525 177.565 114.063C176.825 115.111 176.528 116.412 176.738 117.681C176.949 118.95 177.651 120.082 178.689 120.829Z" fill="#6C63FF"/>
        <path d="M153.502 220.97L157.78 222.101L164.14 205.987L157.826 204.317L153.502 220.97Z" fill="#FFB8B8"/>
        <path d="M164.99 228.292L151.544 224.737L152.905 219.494L161.156 221.676C162.534 222.04 163.712 222.942 164.431 224.183C165.15 225.424 165.351 226.902 164.99 228.292Z" fill="#2F2E41"/>
        <path d="M191.532 224.044L195.886 223.259L194.958 205.938L188.532 207.097L191.532 224.044Z" fill="#FFB8B8"/>
        <path d="M205.004 225.826L191.321 228.293L190.377 222.957L198.773 221.444C199.468 221.319 200.179 221.333 200.868 221.485C201.557 221.638 202.21 221.926 202.788 222.332C203.367 222.739 203.86 223.257 204.241 223.857C204.621 224.456 204.88 225.125 205.004 225.826Z" fill="#2F2E41"/>
        <path d="M182.959 96.6618C184.032 96.9253 184.905 98.0286 185.429 99.3067C185.912 100.649 186.24 102.044 186.404 103.462C186.816 106.104 187.212 108.964 186.36 111.411C185.362 114.279 182.701 115.781 180.394 115.075C178.086 114.369 176.251 111.72 175.624 108.67C175.053 105.588 175.421 102.404 176.679 99.5375C177.334 98.0313 178.238 96.6418 179.439 95.9623C180.028 95.6028 180.73 95.4818 181.403 95.6235C182.077 95.7652 182.673 96.1591 183.071 96.7261" fill="#2F2E41"/>
        <path d="M189.029 144.495L197.318 219.417L190.472 222.04L177.846 171.8L160.268 217.736L152.775 218.156C152.775 218.156 163.056 146.679 170.675 145.055L189.029 144.495Z" fill="#2F2E41"/>
        <path d="M182.067 106.223C186.961 106.223 190.927 102.22 190.927 97.2814C190.927 92.343 186.961 88.3396 182.067 88.3396C177.174 88.3396 173.207 92.343 173.207 97.2814C173.207 102.22 177.174 106.223 182.067 106.223Z" fill="#FFB8B8"/>
        <path d="M185.87 109.974L176.295 108.714C176.295 108.714 170.051 116.276 170.467 129.3C170.884 142.324 169.427 146.315 169.427 146.315L189.39 146.679C186.504 142.675 198.575 119.674 185.87 109.974Z" fill="#6C63FF"/>
        <path d="M191.013 148.5C190.814 148.501 190.614 148.518 190.418 148.551L178.169 135.392L179.417 131.191L173.381 128.46L169.635 137.703L187.257 151.85C187.163 152.62 187.302 153.401 187.658 154.089C188.014 154.777 188.569 155.339 189.249 155.701C189.929 156.063 190.702 156.207 191.465 156.115C192.229 156.022 192.946 155.698 193.522 155.184C194.098 154.67 194.506 153.991 194.69 153.238C194.875 152.485 194.828 151.693 194.556 150.967C194.283 150.241 193.798 149.617 193.166 149.176C192.533 148.735 191.782 148.499 191.013 148.5Z" fill="#FFB8B8"/>
        <path d="M177.598 115.094L171.924 129.09L179.834 132.871L186.384 119.02C186.666 118.424 186.824 117.777 186.849 117.117C186.874 116.457 186.766 115.799 186.53 115.183C186.294 114.567 185.936 114.006 185.478 113.535C185.02 113.063 184.472 112.691 183.866 112.441C183.282 112.2 182.656 112.077 182.025 112.08C181.394 112.083 180.769 112.211 180.187 112.457C179.605 112.704 179.077 113.063 178.633 113.516C178.188 113.968 177.836 114.505 177.598 115.094Z" fill="#6C63FF"/>
        <path d="M179.75 105.411C181.138 104.602 181.286 102.653 181.097 101.046C180.909 99.4401 180.594 97.6495 181.529 96.3361C182.646 94.7686 184.889 94.7374 186.801 94.6863C188.713 94.6351 191.042 94.07 191.537 92.2054C191.865 90.9734 191.164 89.6512 190.159 88.8778C189.154 88.1045 187.897 87.7625 186.674 87.4376C183.94 86.7107 181.117 85.9776 178.317 86.3771C175.544 86.7729 173.037 88.2545 171.338 90.5016C169.64 92.7486 168.886 95.5803 169.24 98.3839C169.693 101.97 170.35 103.536 169.919 105.118C169.116 108.063 165.651 109.955 165.582 113.009C165.528 115.398 167.619 117.241 169.659 118.454C171.277 119.416 173.024 120.233 174.888 120.458C176.753 120.683 178.761 120.252 180.15 118.977C181.942 117.331 182.385 114.583 181.871 112.194C181.357 109.805 180.04 107.683 178.736 105.623" fill="#2F2E41"/>
        <path d="M347.394 108.089H219.331C218.471 108.09 217.646 108.436 217.037 109.05C216.428 109.664 216.086 110.497 216.085 111.365V194.371C216.086 195.24 216.428 196.073 217.037 196.687C217.646 197.301 218.471 197.647 219.331 197.648H347.394C348.255 197.647 349.08 197.301 349.688 196.687C350.297 196.073 350.639 195.24 350.641 194.371V111.365C350.639 110.497 350.297 109.664 349.688 109.05C349.08 108.436 348.255 108.09 347.394 108.089ZM349.919 194.371C349.919 195.047 349.652 195.695 349.179 196.173C348.705 196.65 348.064 196.919 347.394 196.92H219.331C218.662 196.919 218.02 196.65 217.547 196.173C217.073 195.695 216.807 195.047 216.806 194.371V111.365C216.807 110.69 217.073 110.042 217.547 109.564C218.02 109.086 218.662 108.817 219.331 108.817H347.394C348.064 108.817 348.705 109.086 349.179 109.564C349.652 110.042 349.919 110.69 349.919 111.365V194.371Z" fill="#3F3D56"/>
        <path d="M246.667 149.408H226.465C225.652 149.407 224.873 149.081 224.298 148.501C223.723 147.921 223.4 147.134 223.399 146.314V125.926C223.4 125.106 223.723 124.319 224.298 123.739C224.873 123.159 225.652 122.833 226.465 122.832H246.667C247.479 122.833 248.259 123.159 248.834 123.739C249.408 124.319 249.732 125.106 249.733 125.926V146.314C249.732 147.134 249.408 147.921 248.834 148.501C248.259 149.081 247.479 149.407 246.667 149.408Z" fill="#6C63FF"/>
        <path d="M340.724 171.073H226.009C225.387 171.073 224.791 170.824 224.351 170.38C223.911 169.936 223.664 169.334 223.664 168.707C223.664 168.079 223.911 167.477 224.351 167.033C224.791 166.59 225.387 166.34 226.009 166.34H340.724C341.346 166.34 341.943 166.59 342.382 167.033C342.822 167.477 343.069 168.079 343.069 168.707C343.069 169.334 342.822 169.936 342.382 170.38C341.943 170.824 341.346 171.073 340.724 171.073Z" fill="#CCCCCC"/>
        <path d="M340.801 159.605H226.086C225.464 159.605 224.868 159.356 224.428 158.912C223.988 158.468 223.741 157.866 223.741 157.239C223.741 156.611 223.988 156.009 224.428 155.565C224.868 155.122 225.464 154.872 226.086 154.872H340.801C341.423 154.872 342.02 155.122 342.459 155.565C342.899 156.009 343.146 156.611 343.146 157.239C343.146 157.866 342.899 158.468 342.459 158.912C342.02 159.356 341.423 159.605 340.801 159.605Z" fill="#CCCCCC"/>
        <path d="M284.165 143.947H267.21C266.589 143.947 265.992 143.698 265.552 143.254C265.113 142.81 264.866 142.208 264.866 141.581C264.866 140.953 265.113 140.351 265.552 139.907C265.992 139.463 266.589 139.214 267.21 139.214H284.165C284.787 139.214 285.384 139.463 285.823 139.907C286.263 140.351 286.51 140.953 286.51 141.581C286.51 142.208 286.263 142.81 285.823 143.254C285.384 143.698 284.787 143.947 284.165 143.947Z" fill="#CCCCCC"/>
        <path d="M340.801 132.3H267.21C266.589 132.3 265.992 132.051 265.552 131.607C265.113 131.164 264.866 130.562 264.866 129.934C264.866 129.306 265.113 128.705 265.552 128.261C265.992 127.817 266.589 127.568 267.21 127.568H340.801C341.423 127.568 342.02 127.817 342.459 128.261C342.899 128.705 343.146 129.306 343.146 129.934C343.146 130.562 342.899 131.164 342.459 131.607C342.02 132.051 341.423 132.3 340.801 132.3Z" fill="#CCCCCC"/>
        <path d="M281.279 182.723H226.009C225.387 182.723 224.791 182.474 224.351 182.03C223.911 181.586 223.664 180.984 223.664 180.357C223.664 179.729 223.911 179.127 224.351 178.683C224.791 178.24 225.387 177.99 226.009 177.99H281.279C281.901 177.99 282.498 178.24 282.937 178.683C283.377 179.127 283.624 179.729 283.624 180.357C283.624 180.984 283.377 181.586 282.937 182.03C282.498 182.474 281.901 182.723 281.279 182.723Z" fill="#CCCCCC"/>
    </g>
    <defs>
        <clipPath id="clip0_8_175">
            <rect width="351" height="233" fill="white"/>
        </clipPath>
    </defs>
</svg>
