<svg width="35" height="35" viewBox="0 0 35 35" fill="none" xmlns="http://www.w3.org/2000/svg">
    <g clip-path="url(#clip0_49_447)">
        <path d="M17.5 16.0417C18.6537 16.0417 19.7815 15.6995 20.7408 15.0586C21.7001 14.4176 22.4477 13.5066 22.8893 12.4407C23.3308 11.3748 23.4463 10.2019 23.2212 9.07031C22.9961 7.93875 22.4406 6.89935 21.6247 6.08355C20.8089 5.26774 19.7695 4.71217 18.638 4.48709C17.5064 4.26201 16.3335 4.37753 15.2676 4.81904C14.2017 5.26055 13.2907 6.00822 12.6497 6.96751C12.0087 7.9268 11.6666 9.05461 11.6666 10.2083C11.6666 11.7554 12.2812 13.2392 13.3752 14.3331C14.4691 15.4271 15.9529 16.0417 17.5 16.0417ZM17.5 7.29167C18.0768 7.29167 18.6407 7.46273 19.1204 7.78322C19.6 8.1037 19.9739 8.55922 20.1946 9.09218C20.4154 9.62513 20.4731 10.2116 20.3606 10.7773C20.248 11.3431 19.9703 11.8628 19.5624 12.2707C19.1544 12.6786 18.6348 12.9564 18.069 13.069C17.5032 13.1815 16.9168 13.1237 16.3838 12.903C15.8508 12.6822 15.3953 12.3084 15.0748 11.8287C14.7544 11.3491 14.5833 10.7852 14.5833 10.2083C14.5833 9.43479 14.8906 8.69292 15.4376 8.14594C15.9845 7.59896 16.7264 7.29167 17.5 7.29167Z" fill="#808080"/>
        <path d="M17.5 18.9584C14.7925 18.9584 12.196 20.0339 10.2816 21.9483C8.36714 23.8628 7.29163 26.4593 7.29163 29.1667C7.29163 29.5535 7.44527 29.9244 7.71876 30.1979C7.99225 30.4714 8.36319 30.625 8.74996 30.625C9.13673 30.625 9.50767 30.4714 9.78116 30.1979C10.0546 29.9244 10.2083 29.5535 10.2083 29.1667C10.2083 27.2328 10.9765 25.3782 12.344 24.0107C13.7114 22.6433 15.5661 21.875 17.5 21.875C19.4338 21.875 21.2885 22.6433 22.6559 24.0107C24.0234 25.3782 24.7916 27.2328 24.7916 29.1667C24.7916 29.5535 24.9453 29.9244 25.2188 30.1979C25.4923 30.4714 25.8632 30.625 26.25 30.625C26.6367 30.625 27.0077 30.4714 27.2812 30.1979C27.5546 29.9244 27.7083 29.5535 27.7083 29.1667C27.7083 26.4593 26.6328 23.8628 24.7183 21.9483C22.8039 20.0339 20.2074 18.9584 17.5 18.9584Z" fill="#808080"/>
    </g>
    <defs>
        <clipPath id="clip0_49_447">
            <rect width="35" height="35" fill="white"/>
        </clipPath>
    </defs>
</svg>
