<svg width="159" height="168" viewBox="0 0 159 168" fill="none" xmlns="http://www.w3.org/2000/svg">
    <g clip-path="url(#clip0_8_54)">
        <path d="M79.5 168C123.407 168 159 165.809 159 163.107C159 160.405 123.407 158.214 79.5 158.214C35.5934 158.214 0 160.405 0 163.107C0 165.809 35.5934 168 79.5 168Z" fill="#E6E6E6"/>
        <path d="M90.1233 38.7605H89.2681V14.2094C89.2681 10.4408 87.8394 6.82662 85.2963 4.16184C82.7532 1.49706 79.304 0 75.7076 0H26.0683C22.4718 0 19.0226 1.49706 16.4795 4.16184C13.9364 6.82662 12.5078 10.4408 12.5078 14.2094V148.898C12.5078 152.666 13.9364 156.281 16.4795 158.945C19.0226 161.61 22.4718 163.107 26.0683 163.107H75.7076C79.304 163.107 82.7532 161.61 85.2963 158.945C87.8394 156.281 89.2681 152.666 89.2681 148.898V56.2363H90.1233V38.7605Z" fill="#3F3D56"/>
        <path d="M86.3819 14.3088V148.799C86.3818 151.613 85.3148 154.312 83.4156 156.302C81.5164 158.292 78.9405 159.41 76.2547 159.411H26.3772C23.6914 159.41 21.1156 158.292 19.2165 156.302C17.3174 154.312 16.2504 151.613 16.2502 148.799V14.3088C16.2503 11.4944 17.3173 8.79524 19.2165 6.80515C21.1157 4.81507 23.6916 3.69703 26.3774 3.69696H32.4283C32.131 4.46253 32.0177 5.29293 32.0985 6.11513C32.1793 6.93732 32.4517 7.72612 32.8917 8.41211C33.3318 9.0981 33.9259 9.66028 34.622 10.0492C35.318 10.4381 36.0946 10.6418 36.8834 10.6424H65.3212C66.1101 10.6418 66.8867 10.4381 67.5827 10.0493C68.2788 9.66038 68.873 9.09821 69.313 8.41221C69.7531 7.72621 70.0255 6.93741 70.1063 6.11519C70.1871 5.29298 70.0739 4.46255 69.7765 3.69696H76.2547C78.9405 3.69703 81.5164 4.81507 83.4156 6.80515C85.3148 8.79524 86.3818 11.4944 86.3819 14.3088Z" fill="white"/>
        <path d="M39.2915 116.135H38.2424L38.5927 94.665H38.9429L39.2915 116.135Z" fill="#E6E6E6"/>
        <path d="M40.1653 81.148L41.8586 78.4062C41.3564 76.9528 40.7765 75.5302 40.1215 74.1453L39.0267 75.072L39.8936 73.6682C39.0673 71.9642 38.4173 70.8904 38.4173 70.8904C38.4173 70.8904 35.022 76.4971 33.8871 82.4344L36.0598 85.9529L33.655 83.9172C33.5693 84.6087 33.5253 85.3053 33.5231 86.0026C33.5231 93.0337 35.7145 98.7333 38.4178 98.7333C41.121 98.7333 43.3124 93.0329 43.3124 86.0026C43.3124 83.823 42.8417 81.5426 42.1917 79.433L40.1653 81.148Z" fill="#CCCCCC"/>
        <path d="M66.5991 116.135H65.55L65.9003 94.665H66.2505L66.5991 116.135Z" fill="#E6E6E6"/>
        <path d="M67.473 81.148L69.1662 78.4062C68.6641 76.9528 68.0841 75.5302 67.4291 74.1453L66.3343 75.072L67.2012 73.6682C66.3749 71.9642 65.7249 70.8904 65.7249 70.8904C65.7249 70.8904 62.3292 76.4976 61.1954 82.4344L63.3665 85.9525L60.9617 83.9167C60.876 84.6083 60.832 85.3048 60.8298 86.0021C60.8298 93.0332 63.0212 98.7328 65.7244 98.7328C68.4277 98.7328 70.6191 93.0324 70.6191 86.0021C70.6191 83.8225 70.1484 81.5421 69.4984 79.4325L67.473 81.148Z" fill="#CCCCCC"/>
        <path d="M38.4932 44.9666C43.8161 44.9666 48.1312 40.445 48.1312 34.8674C48.1312 29.2897 43.8161 24.7681 38.4932 24.7681C33.1702 24.7681 28.8551 29.2897 28.8551 34.8674C28.8551 40.445 33.1702 44.9666 38.4932 44.9666Z" fill="#E6E6E6"/>
        <path d="M51.8427 113.009H49.6799L50.4009 68.7402H51.1217L51.8427 113.009Z" fill="#E6E6E6"/>
        <path d="M53.6449 40.8694L57.1361 35.2165C56.1008 32.2197 54.9049 29.2865 53.5543 26.4308L51.2968 28.3413L53.0843 25.4465C51.3799 21.9329 50.0404 19.719 50.0404 19.719C50.0404 19.719 43.0388 31.2803 40.6996 43.5212L45.1784 50.7764L40.2188 46.5789C40.0422 48.0048 39.9514 49.441 39.9468 50.8789C39.9468 65.3762 44.4654 77.1286 50.0393 77.1286C55.6131 77.1286 60.1317 65.3762 60.1317 50.8789C60.1317 46.3846 59.1613 41.6826 57.8228 37.333L53.6449 40.8694Z" fill="#CCCCCC"/>
        <path d="M86.3818 119.39V149.484C86.3818 155.588 81.8479 160.536 76.2546 160.536H26.3772C20.7842 160.536 16.25 155.588 16.2498 149.484V122.324C24.8974 111.245 37.4005 104.624 50.7259 104.067C64.0513 103.509 76.9824 109.066 86.3818 119.39Z" fill="#E6E6E6"/>
        <path opacity="0.2" d="M51.3703 149.076C59.5208 149.076 66.1281 142.152 66.1281 133.612C66.1281 125.071 59.5208 118.148 51.3703 118.148C43.2198 118.148 36.6125 125.071 36.6125 133.612C36.6125 142.152 43.2198 149.076 51.3703 149.076Z" fill="#6C63FF"/>
        <path d="M51.3703 146.064C57.9331 146.064 63.2533 140.489 63.2533 133.612C63.2533 126.735 57.9331 121.16 51.3703 121.16C44.8075 121.16 39.4873 126.735 39.4873 133.612C39.4873 140.489 44.8075 146.064 51.3703 146.064Z" fill="#6C63FF"/>
        <path d="M49.9844 138.936L45.7964 133.294L48.2319 131.309L50.2146 133.98L56.9129 126.571L59.1529 128.794L49.9844 138.936Z" fill="white"/>
        <path d="M114.519 114.245C118.774 114.245 122.224 110.63 122.224 106.172C122.224 101.713 118.774 98.098 114.519 98.098C110.263 98.098 106.814 101.713 106.814 106.172C106.814 110.63 110.263 114.245 114.519 114.245Z" fill="#2F2E41"/>
        <path d="M117.641 151.495L118.235 154.429L129.318 153.426L128.442 149.096L117.641 151.495Z" fill="#FFB8B8"/>
        <path d="M116.778 160.665L114.913 151.443L118.313 150.688L119.458 156.347C119.552 156.815 119.558 157.297 119.475 157.768C119.391 158.238 119.22 158.686 118.971 159.087C118.723 159.488 118.401 159.834 118.025 160.105C117.648 160.375 117.225 160.566 116.778 160.665Z" fill="#2F2E41"/>
        <path d="M110.698 151.338L109.45 154.038L98.9202 150.281L100.761 146.297L110.698 151.338Z" fill="#FFB8B8"/>
        <path d="M107.824 155.595L110.23 150.389L113.358 151.976L109.438 160.46C108.608 160.039 107.972 159.29 107.669 158.378C107.367 157.466 107.422 156.465 107.824 155.595Z" fill="#2F2E41"/>
        <path d="M89.9503 146.007C90.3108 146.077 90.6816 146.064 91.0367 145.968C91.3917 145.872 91.7223 145.695 92.0052 145.451C92.2881 145.206 92.5164 144.9 92.6741 144.553C92.8317 144.206 92.9149 143.827 92.9176 143.443L110.282 126.667L105.97 123.167L90.2482 140.768C89.6317 140.805 89.0498 141.079 88.6128 141.536C88.1759 141.993 87.9142 142.603 87.8775 143.248C87.8408 143.894 88.0316 144.532 88.4137 145.04C88.7958 145.549 89.3427 145.893 89.9506 146.007L89.9503 146.007Z" fill="#FFB8B8"/>
        <path d="M113.552 114.61C116.719 114.61 119.286 111.919 119.286 108.601C119.286 105.282 116.719 102.592 113.552 102.592C110.385 102.592 107.817 105.282 107.817 108.601C107.817 111.919 110.385 114.61 113.552 114.61Z" fill="#FFB8B8"/>
        <path d="M118.698 143.922C114.675 143.922 109.831 143.035 106.842 139.402L106.775 139.32L106.845 139.24C106.868 139.214 109.066 136.581 106.871 131.885L103.852 132.858L100.847 128.702L102.512 123.469L109.324 117.72C110.3 116.9 111.488 116.406 112.735 116.303C114.991 116.074 117.189 115.418 119.222 114.367C120.152 113.893 121.177 113.658 122.211 113.682L122.345 113.686C122.659 113.695 122.969 113.771 123.254 113.909C123.54 114.048 123.795 114.245 124.006 114.49C124.216 114.735 124.377 115.022 124.479 115.334C124.58 115.646 124.62 115.977 124.596 116.305C124.134 122.576 123.318 137.723 125.715 142.938L125.776 143.073L125.638 143.11C123.361 143.647 121.033 143.919 118.699 143.922L118.698 143.922Z" fill="#6C63FF"/>
        <path d="M107.631 139.322C107.631 139.322 92.4549 137.854 90.8205 142.502C89.1861 147.151 91.054 149.353 93.8557 150.331C96.6575 151.31 103.428 152.533 103.428 152.533L106.464 148.619L114.402 149.108C114.402 149.108 123.247 154.484 125.693 160.233C126.218 161.477 127.055 162.549 128.114 163.335C129.174 164.12 130.417 164.59 131.712 164.695C133.673 164.838 135.415 164.062 135.415 160.851C135.415 153.511 125.609 142.991 125.609 142.991L107.631 139.322Z" fill="#2F2E41"/>
        <path d="M96.0739 146.539C96.0739 146.539 100.043 145.316 106.347 148.496L96.0739 146.539Z" fill="#2F2E41"/>
        <path d="M107.831 104.768C110.071 106.201 112.596 107.073 115.209 107.316L114.431 106.339C114.998 106.559 115.594 106.682 116.197 106.706C116.499 106.715 116.799 106.65 117.072 106.516C117.346 106.382 117.586 106.182 117.773 105.933C117.925 105.675 118.016 105.382 118.037 105.079C118.058 104.775 118.009 104.472 117.893 104.193C117.656 103.637 117.287 103.153 116.822 102.789C115.996 102.105 115.022 101.645 113.986 101.451C112.95 101.257 111.885 101.335 110.884 101.677C110.198 101.891 109.583 102.305 109.11 102.869C108.877 103.153 108.716 103.493 108.64 103.858C108.564 104.224 108.576 104.604 108.675 104.963" fill="#2F2E41"/>
        <path d="M114.477 99.9657C115.496 97.4865 117.021 95.2714 118.946 93.4765C120.181 92.3267 121.624 91.3375 123.252 91.0391C124.88 90.7406 126.716 91.2519 127.714 92.632C128.532 93.7606 128.684 95.2725 128.594 96.6856C128.504 98.0987 128.203 99.4991 128.231 100.914C128.261 102.359 128.634 103.773 129.317 105.028C130.001 106.284 130.973 107.34 132.144 108.102C133.316 108.864 134.651 109.307 136.028 109.391C137.405 109.476 138.78 109.198 140.028 108.584C138.622 109.399 137.527 110.688 136.223 111.669C134.918 112.649 133.196 113.323 131.714 112.674C130.145 111.989 129.426 110.125 128.864 108.444L126.358 100.948C125.932 99.6738 125.485 98.3617 124.616 97.3653C123.747 96.3688 122.336 95.7611 121.14 96.2621C120.233 96.6418 119.642 97.5485 119.125 98.4151C118.607 99.2816 118.061 100.206 117.187 100.661C116.313 101.116 115.015 100.836 114.73 99.8571" fill="#2F2E41"/>
        <path d="M116.445 143.943C116.346 143.943 116.247 143.937 116.149 143.926C115.496 143.849 114.897 143.513 114.473 142.987C114.05 142.461 113.835 141.785 113.872 141.098C113.909 140.412 114.196 139.766 114.674 139.294C115.152 138.822 115.784 138.559 116.441 138.561C116.556 138.561 116.67 138.57 116.783 138.587L124.623 129.842L123.805 126.983L127.914 125.053L129.066 128.003C129.452 129.003 129.521 130.106 129.261 131.149C129.001 132.193 128.428 133.121 127.625 133.795L118.995 140.988C119.004 141.076 119.009 141.164 119.009 141.252C119.009 141.631 118.933 142.005 118.785 142.351C118.638 142.696 118.423 143.005 118.154 143.258C117.685 143.701 117.076 143.945 116.445 143.943Z" fill="#FFB8B8"/>
        <path d="M122.574 114.857C122.846 114.73 123.139 114.662 123.437 114.658C123.734 114.653 124.029 114.711 124.305 114.829C124.58 114.947 124.83 115.122 125.039 115.343C125.248 115.565 125.413 115.828 125.522 116.118L129.578 126.845L123.274 131.248L122.574 114.857Z" fill="#6C63FF"/>
    </g>
    <defs>
        <clipPath id="clip0_8_54">
            <rect width="159" height="168" fill="white"/>
        </clipPath>
    </defs>
</svg>
