<svg width="29" height="42" viewBox="0 0 29 42" fill="none" xmlns="http://www.w3.org/2000/svg">
    <path d="M28.658 7.50053C28.6575 6.79521 28.4172 6.11078 27.9761 5.55854C27.535 5.00631 26.9191 4.61874 26.2284 4.45887L25.4326 1.58387C25.2873 1.11897 24.9945 0.713419 24.598 0.427972C24.2015 0.142524 23.7228 -0.00744564 23.2334 0.000532197H5.6192C5.13172 -0.0101123 4.65427 0.139176 4.26058 0.425345C3.8669 0.711513 3.57887 1.11864 3.44099 1.58387L2.64511 4.45887C1.9293 4.63842 1.29729 5.05724 0.854972 5.64514C0.412654 6.23303 0.186908 6.95429 0.215562 7.68803C0.213823 8.35373 0.429312 9.00201 0.829649 9.53546C1.22999 10.0689 1.79355 10.4587 2.43566 10.6464L2.64511 16.4172C2.30977 16.4713 2.00112 16.6322 1.76544 16.8755C1.61741 17.0309 1.50221 17.2141 1.42666 17.4145C1.35112 17.6149 1.31675 17.8284 1.32561 18.0422L1.82828 30.0422C1.84354 30.411 1.98801 30.7628 2.23664 31.0367C2.48528 31.3107 2.82242 31.4895 3.18966 31.5422L3.35721 36.1672C3.40034 37.5674 3.99156 38.8956 5.00488 39.8685C6.01819 40.8414 7.37345 41.3822 8.7818 41.3755H20.0708C21.4824 41.3866 22.8424 40.8479 23.86 39.8746C24.8776 38.9013 25.4721 37.5707 25.5163 36.1672L25.6839 31.5422C26.0471 31.4847 26.3792 31.3039 26.6235 31.0304C26.8679 30.757 27.0095 30.4078 27.0243 30.0422L27.527 18.0422C27.5358 17.8284 27.5015 17.6149 27.4259 17.4145C27.3504 17.2141 27.2352 17.0309 27.0872 16.8755C26.8598 16.6324 26.5578 16.4712 26.2284 16.4172L26.4379 10.6464C27.1009 10.4325 27.676 10.01 28.0765 9.44253C28.477 8.87508 28.6811 8.19347 28.658 7.50053ZM5.6192 2.08387L23.401 2.14637L24.0293 4.37553H4.88615L5.6192 2.08387ZM23.4219 36.1047C23.3956 36.9671 23.0295 37.7847 22.4026 38.3811C21.7756 38.9774 20.9381 39.3046 20.0708 39.2922H8.7818C7.91759 39.3007 7.08452 38.9716 6.46176 38.3755C5.83901 37.7794 5.4763 36.964 5.45165 36.1047L5.28409 31.563H23.5895L23.4219 36.1047ZM10.0385 23.9797C10.0385 23.1144 10.2964 22.2685 10.7797 21.5491C11.263 20.8296 11.9499 20.2689 12.7536 19.9377C13.5573 19.6066 14.4417 19.52 15.2948 19.6888C16.148 19.8576 16.9317 20.2743 17.5469 20.8861C18.162 21.498 18.5809 22.2775 18.7506 23.1262C18.9203 23.9748 18.8332 24.8545 18.5003 25.6539C18.1674 26.4534 17.6036 27.1367 16.8803 27.6174C16.157 28.0981 15.3067 28.3547 14.4368 28.3547C13.2703 28.3547 12.1515 27.8938 11.3267 27.0733C10.5019 26.2528 10.0385 25.14 10.0385 23.9797ZM24.134 16.3755H4.73954L4.5301 10.813H24.3225L24.134 16.3755ZM25.5163 8.7297H3.35721C3.20474 8.72461 3.05502 8.68783 2.91769 8.62173C2.78036 8.55563 2.65846 8.46168 2.55982 8.3459C2.46119 8.23013 2.38801 8.09511 2.34498 7.94951C2.30195 7.80392 2.29004 7.65098 2.31 7.50053C2.31 7.22427 2.42033 6.95931 2.61672 6.76396C2.81311 6.56861 3.07947 6.45887 3.35721 6.45887H25.5163C25.6682 6.46582 25.8169 6.50383 25.9533 6.57053C26.0897 6.63723 26.2109 6.73119 26.3091 6.84653C26.4074 6.96187 26.4807 7.09613 26.5245 7.24091C26.5683 7.3857 26.5816 7.53791 26.5636 7.68803C26.5636 7.9643 26.4532 8.22925 26.2568 8.4246C26.0604 8.61995 25.7941 8.7297 25.5163 8.7297Z" fill="#FF5A36"/>
</svg>
