<svg width="35" height="35" viewBox="0 0 35 35" fill="none" xmlns="http://www.w3.org/2000/svg">
    <path d="M2.91663 17.7973C2.91663 14.46 2.91663 12.7914 3.67379 11.4081C4.43096 10.0248 5.81426 9.16633 8.58084 7.44932L11.4975 5.63914C14.422 3.82413 15.8843 2.91663 17.5 2.91663C19.1156 2.91663 20.5779 3.82413 23.5025 5.63914L26.4191 7.4493C29.1857 9.16633 30.569 10.0248 31.3261 11.4081C32.0833 12.7914 32.0833 14.46 32.0833 17.7973V20.0156C32.0833 25.7043 32.0833 28.5487 30.3747 30.3159C28.6663 32.0833 25.9163 32.0833 20.4166 32.0833H14.5833C9.08357 32.0833 6.33372 32.0833 4.62517 30.3159C2.91663 28.5487 2.91663 25.7043 2.91663 20.0156V17.7973Z" stroke="#FF5A36" stroke-width="3.75"/>
    <path d="M13.125 23.3334C14.3651 24.2526 15.8734 24.7917 17.5 24.7917C19.1266 24.7917 20.6348 24.2526 21.875 23.3334" stroke="#FF5A36" stroke-width="3.75" stroke-linecap="round"/>
</svg>
