<svg width="18" height="18" viewBox="0 0 18 18" fill="none" xmlns="http://www.w3.org/2000/svg">
    <path d="M6.43784 3.06754C7.57781 1.02252 8.14778 0 8.99999 0C9.8522 0 10.4222 1.02251 11.5621 3.06753L11.857 3.5966C12.181 4.17773 12.3429 4.46831 12.5956 4.66002C12.8481 4.85174 13.1626 4.9229 13.7917 5.06524L14.3644 5.19482C16.5781 5.6957 17.685 5.94613 17.9483 6.79295C18.2117 7.63973 17.4571 8.52218 15.9479 10.2869L15.5575 10.7435C15.1286 11.2449 14.9142 11.4957 14.8177 11.8059C14.7213 12.1161 14.7537 12.4507 14.8185 13.1198L14.8775 13.7289C15.1057 16.0835 15.2198 17.2608 14.5304 17.7842C13.8409 18.3075 12.8046 17.8303 10.7319 16.8761L10.1956 16.6291C9.60668 16.3579 9.3122 16.2223 8.99999 16.2223C8.68778 16.2223 8.3933 16.3579 7.80434 16.6291L7.26812 16.8761C5.19541 17.8303 4.15906 18.3075 3.46963 17.7842C2.78021 17.2608 2.89429 16.0835 3.12246 13.7289L3.18148 13.1198C3.24632 12.4507 3.27874 12.1161 3.18227 11.8059C3.08581 11.4957 2.87139 11.2449 2.44253 10.7435L2.05209 10.2869C0.542926 8.52218 -0.21166 7.63973 0.0516797 6.79295C0.315019 5.94613 1.42187 5.6957 3.63558 5.19482L4.2083 5.06524C4.83736 4.9229 5.15189 4.85174 5.40444 4.66002C5.65699 4.46831 5.81897 4.17774 6.14292 3.5966L6.43784 3.06754Z" fill="#F9E423"/>
</svg>
