<svg width="35" height="35" viewBox="0 0 35 35" fill="none" xmlns="http://www.w3.org/2000/svg">
    <path d="M2.91663 17.5C2.91663 24.3745 2.91663 27.812 5.05231 29.9476C7.18798 32.0833 10.6253 32.0833 17.5 32.0833C24.3745 32.0833 27.812 32.0833 29.9476 29.9476C32.0833 27.812 32.0833 24.3745 32.0833 17.5V15.3125M19.6875 2.91663H17.5C10.6253 2.91663 7.18798 2.91663 5.05231 5.05231C3.63227 6.47235 3.15643 8.46784 2.99698 11.6666" stroke="#808080" stroke-width="3.75" stroke-linecap="round"/>
    <path d="M27.7084 11.6666C30.1246 11.6666 32.0834 9.70787 32.0834 7.29163C32.0834 4.87538 30.1246 2.91663 27.7084 2.91663C25.2921 2.91663 23.3334 4.87538 23.3334 7.29163C23.3334 9.70787 25.2921 11.6666 27.7084 11.6666Z" stroke="#808080" stroke-width="3.75"/>
</svg>
